<?xml version="1.0" encoding="utf-8"?>
<mlt LC_NUMERIC="C" producer="main_bin" root="/media/julius/data/dev/kdegit/multimedia/kdenlive-opentimelineio/tests/sample_data" version="7.25.0">
    <profile colorspace="601" description="DV/DVD PAL" display_aspect_den="3" display_aspect_num="4" frame_rate_den="1" frame_rate_num="25" height="576" progressive="0" sample_aspect_den="15" sample_aspect_num="16" width="720"/>
    <producer id="producer2" in="00:00:00.000" out="00:05:48.000" title="Anonymous Submission">
        <property name="length">8701</property>
        <property name="eof">pause</property>
        <property name="resource">AUD0001.OGG</property>
        <property name="aspect_ratio">1.06667</property>
        <property name="text">INVALID</property>
        <property name="fgcolour">0xffffffff</property>
        <property name="bgcolour">0x00000000</property>
        <property name="olcolour">0x00000000</property>
        <property name="outline">0</property>
        <property name="align">left</property>
        <property name="pad">0</property>
        <property name="family">Sans</property>
        <property name="size">48</property>
        <property name="style">normal</property>
        <property name="weight">400</property>
        <property name="encoding">UTF-8</property>
        <property name="meta.media.progressive">1</property>
        <property name="mlt_service">avformat</property>
        <property name="meta.media.nb_streams">1</property>
        <property name="meta.media.0.stream.type">audio</property>
        <property name="meta.media.0.codec.sample_fmt">fltp</property>
        <property name="meta.media.0.codec.sample_rate">44100</property>
        <property name="meta.media.0.codec.channels">2</property>
        <property name="meta.media.0.codec.name">vorbis</property>
        <property name="meta.media.0.codec.long_name">Vorbis</property>
        <property name="meta.media.0.codec.bit_rate">112000</property>
        <property name="seekable">1</property>
        <property name="audio_index">0</property>
        <property name="video_index">-1</property>
        <property name="kdenlive:clipname"/>
        <property name="kdenlive:folderid">-1</property>
        <property name="kdenlive:id">2</property>
        <property name="kdenlive:file_size">4746320</property>
        <property name="kdenlive:file_hash">2581967857de47ee2adee0965a84fd70</property>
        <property name="global_feed">1</property>
        <property name="kdenlive:orig_service">avformat</property>
    </producer>
    <producer id="producer4" in="00:00:00.000" out="00:02:03.360" title="Anonymous Submission">
        <property name="length">3085</property>
        <property name="eof">pause</property>
        <property name="resource">AUD0002.OGG</property>
        <property name="aspect_ratio">1.06667</property>
        <property name="text">INVALID</property>
        <property name="fgcolour">0xffffffff</property>
        <property name="bgcolour">0x00000000</property>
        <property name="olcolour">0x00000000</property>
        <property name="outline">0</property>
        <property name="align">left</property>
        <property name="pad">0</property>
        <property name="family">Sans</property>
        <property name="size">48</property>
        <property name="style">normal</property>
        <property name="weight">400</property>
        <property name="encoding">UTF-8</property>
        <property name="meta.media.progressive">1</property>
        <property name="mlt_service">avformat</property>
        <property name="meta.media.nb_streams">1</property>
        <property name="meta.media.0.stream.type">audio</property>
        <property name="meta.media.0.codec.sample_fmt">fltp</property>
        <property name="meta.media.0.codec.sample_rate">44100</property>
        <property name="meta.media.0.codec.channels">2</property>
        <property name="meta.media.0.codec.name">vorbis</property>
        <property name="meta.media.0.codec.long_name">Vorbis</property>
        <property name="meta.media.0.codec.bit_rate">112000</property>
        <property name="seekable">1</property>
        <property name="audio_index">0</property>
        <property name="video_index">-1</property>
        <property name="kdenlive:clipname">Music</property>
        <property name="kdenlive:folderid">-1</property>
        <property name="kdenlive:id">3</property>
        <property name="kdenlive:file_size">1686721</property>
        <property name="kdenlive:file_hash">f5fc0d494799f2cbaabc85c758b7d6d6</property>
        <property name="global_feed">1</property>
        <property name="kdenlive:orig_service">avformat</property>
    </producer>
    <producer id="producer5" in="00:00:00.000" out="00:00:39.120" title="Anonymous Submission">
        <property name="length">979</property>
        <property name="eof">pause</property>
        <property name="resource">VID0001.MKV</property>
        <property name="audio_index">1</property>
        <property name="video_index">0</property>
        <property name="mute_on_pause">0</property>
        <property name="mlt_service">avformat-novalidate</property>
        <property name="seekable">1</property>
        <property name="aspect_ratio">2.4</property>
        <property name="kdenlive:clipname">Wide</property>
        <property name="kdenlive:folderid">8</property>
        <property name="kdenlive:id">4</property>
        <property name="kdenlive:file_size">3590506</property>
        <property name="kdenlive:file_hash">162662aad64e84bb9dea3270ffa9dfa7</property>
        <property name="global_feed">1</property>
        <property name="meta.media.nb_streams">2</property>
        <property name="meta.media.0.stream.type">video</property>
        <property name="meta.media.0.stream.frame_rate">29.97</property>
        <property name="meta.media.0.stream.sample_aspect_ratio">2.4</property>
        <property name="meta.media.0.codec.width">720</property>
        <property name="meta.media.0.codec.height">576</property>
        <property name="meta.media.0.codec.rotate">0</property>
        <property name="meta.media.0.codec.frame_rate">29.97</property>
        <property name="meta.media.0.codec.pix_fmt">yuv420p</property>
        <property name="meta.media.0.codec.sample_aspect_ratio">2.4</property>
        <property name="meta.media.0.codec.colorspace">601</property>
        <property name="meta.media.0.codec.name">h264</property>
        <property name="meta.media.0.codec.long_name">H.264 / AVC / MPEG-4 AVC / MPEG-4 part 10</property>
        <property name="meta.media.0.codec.bit_rate">0</property>
        <property name="meta.attr.0.stream.HANDLER_NAME.markup">VideoHandler</property>
        <property name="meta.attr.0.stream.ENCODER.markup">Lavc58.54.100 libx264</property>
        <property name="meta.attr.0.stream.DURATION.markup">00:00:37.203000000</property>
        <property name="meta.media.1.stream.type">audio</property>
        <property name="meta.media.1.codec.sample_fmt">fltp</property>
        <property name="meta.media.1.codec.sample_rate">48000</property>
        <property name="meta.media.1.codec.channels">2</property>
        <property name="meta.media.1.codec.name">vorbis</property>
        <property name="meta.media.1.codec.long_name">Vorbis</property>
        <property name="meta.media.1.codec.bit_rate">0</property>
        <property name="meta.attr.1.stream.HANDLER_NAME.markup">SoundHandler</property>
        <property name="meta.attr.1.stream.ENCODER.markup">Lavc58.54.100 libvorbis</property>
        <property name="meta.attr.1.stream.DURATION.markup">00:00:39.159000000</property>
        <property name="meta.attr.MINOR_VERSION.markup">512</property>
        <property name="meta.attr.COMPATIBLE_BRANDS.markup">iso6mp41</property>
        <property name="meta.attr.MAJOR_BRAND.markup">iso5</property>
        <property name="meta.attr.ENCODER.markup">Lavf58.29.100</property>
        <property name="meta.media.sample_aspect_num">12</property>
        <property name="meta.media.sample_aspect_den">5</property>
        <property name="meta.media.frame_rate_num">30000</property>
        <property name="meta.media.frame_rate_den">1001</property>
        <property name="meta.media.colorspace">601</property>
        <property name="meta.media.color_trc">2</property>
        <property name="meta.media.width">720</property>
        <property name="meta.media.height">576</property>
        <property name="meta.media.color_range">mpeg</property>
        <property name="meta.media.top_field_first">0</property>
        <property name="meta.media.progressive">1</property>
        <property name="kdenlive:zone_in">508</property>
        <property name="kdenlive:zone_out">639</property>
        <property name="kdenlive:orig_service">avformat-novalidate</property>
    </producer>
    <producer id="producer1" in="00:00:00.000" out="00:00:12.280" title="Anonymous Submission">
        <property name="length">308</property>
        <property name="eof">pause</property>
        <property name="resource">VID0002.MKV</property>
        <property name="audio_index">1</property>
        <property name="video_index">0</property>
        <property name="mute_on_pause">0</property>
        <property name="mlt_service">avformat-novalidate</property>
        <property name="seekable">1</property>
        <property name="aspect_ratio">2.4</property>
        <property name="kdenlive:clipname">Close 1</property>
        <property name="kdenlive:folderid">8</property>
        <property name="kdenlive:id">5</property>
        <property name="kdenlive:file_size">1259453</property>
        <property name="kdenlive:file_hash">82c8b101a4a401e973f9f127dda3743a</property>
        <property name="global_feed">1</property>
        <property name="meta.media.nb_streams">2</property>
        <property name="meta.media.0.stream.type">video</property>
        <property name="meta.media.0.stream.frame_rate">29.97</property>
        <property name="meta.media.0.stream.sample_aspect_ratio">2.4</property>
        <property name="meta.media.0.codec.width">720</property>
        <property name="meta.media.0.codec.height">576</property>
        <property name="meta.media.0.codec.rotate">0</property>
        <property name="meta.media.0.codec.frame_rate">29.97</property>
        <property name="meta.media.0.codec.pix_fmt">yuv420p</property>
        <property name="meta.media.0.codec.sample_aspect_ratio">2.4</property>
        <property name="meta.media.0.codec.colorspace">601</property>
        <property name="meta.media.0.codec.name">h264</property>
        <property name="meta.media.0.codec.long_name">H.264 / AVC / MPEG-4 AVC / MPEG-4 part 10</property>
        <property name="meta.media.0.codec.bit_rate">0</property>
        <property name="meta.attr.0.stream.HANDLER_NAME.markup">VideoHandler</property>
        <property name="meta.attr.0.stream.ENCODER.markup">Lavc58.54.100 libx264</property>
        <property name="meta.attr.0.stream.DURATION.markup">00:00:12.315000000</property>
        <property name="meta.media.1.stream.type">audio</property>
        <property name="meta.media.1.codec.sample_fmt">fltp</property>
        <property name="meta.media.1.codec.sample_rate">48000</property>
        <property name="meta.media.1.codec.channels">2</property>
        <property name="meta.media.1.codec.name">vorbis</property>
        <property name="meta.media.1.codec.long_name">Vorbis</property>
        <property name="meta.media.1.codec.bit_rate">0</property>
        <property name="meta.attr.1.stream.HANDLER_NAME.markup">SoundHandler</property>
        <property name="meta.attr.1.stream.ENCODER.markup">Lavc58.54.100 libvorbis</property>
        <property name="meta.attr.1.stream.DURATION.markup">00:00:12.303000000</property>
        <property name="meta.attr.MAJOR_BRAND.markup">iso5</property>
        <property name="meta.attr.MINOR_VERSION.markup">512</property>
        <property name="meta.attr.COMPATIBLE_BRANDS.markup">iso6mp41</property>
        <property name="meta.attr.ENCODER.markup">Lavf58.29.100</property>
        <property name="meta.media.sample_aspect_num">12</property>
        <property name="meta.media.sample_aspect_den">5</property>
        <property name="meta.media.frame_rate_num">30000</property>
        <property name="meta.media.frame_rate_den">1001</property>
        <property name="meta.media.colorspace">601</property>
        <property name="meta.media.color_trc">2</property>
        <property name="meta.media.width">720</property>
        <property name="meta.media.height">576</property>
        <property name="meta.media.color_range">mpeg</property>
        <property name="meta.media.top_field_first">0</property>
        <property name="meta.media.progressive">1</property>
        <property name="kdenlive:orig_service">avformat-novalidate</property>
    </producer>
    <producer id="producer3" in="00:00:00.000" out="00:00:26.840" title="Anonymous Submission">
        <property name="length">672</property>
        <property name="eof">pause</property>
        <property name="resource">VID0003.MKV</property>
        <property name="audio_index">1</property>
        <property name="video_index">0</property>
        <property name="mute_on_pause">0</property>
        <property name="mlt_service">avformat-novalidate</property>
        <property name="seekable">1</property>
        <property name="aspect_ratio">2.4</property>
        <property name="kdenlive:clipname">Close 2</property>
        <property name="kdenlive:folderid">9</property>
        <property name="kdenlive:id">6</property>
        <property name="kdenlive:file_size">2203343</property>
        <property name="kdenlive:file_hash">da3511cd5b12be5acb6a88fb3f789dff</property>
        <property name="global_feed">1</property>
        <property name="meta.media.nb_streams">2</property>
        <property name="meta.media.0.stream.type">video</property>
        <property name="meta.media.0.stream.frame_rate">29.97</property>
        <property name="meta.media.0.stream.sample_aspect_ratio">2.4</property>
        <property name="meta.media.0.codec.width">720</property>
        <property name="meta.media.0.codec.height">576</property>
        <property name="meta.media.0.codec.rotate">0</property>
        <property name="meta.media.0.codec.frame_rate">29.97</property>
        <property name="meta.media.0.codec.pix_fmt">yuv420p</property>
        <property name="meta.media.0.codec.sample_aspect_ratio">2.4</property>
        <property name="meta.media.0.codec.colorspace">601</property>
        <property name="meta.media.0.codec.name">h264</property>
        <property name="meta.media.0.codec.long_name">H.264 / AVC / MPEG-4 AVC / MPEG-4 part 10</property>
        <property name="meta.media.0.codec.bit_rate">0</property>
        <property name="meta.attr.0.stream.HANDLER_NAME.markup">VideoHandler</property>
        <property name="meta.attr.0.stream.ENCODER.markup">Lavc58.54.100 libx264</property>
        <property name="meta.attr.0.stream.DURATION.markup">00:00:24.894000000</property>
        <property name="meta.media.1.stream.type">audio</property>
        <property name="meta.media.1.codec.sample_fmt">fltp</property>
        <property name="meta.media.1.codec.sample_rate">48000</property>
        <property name="meta.media.1.codec.channels">2</property>
        <property name="meta.media.1.codec.name">vorbis</property>
        <property name="meta.media.1.codec.long_name">Vorbis</property>
        <property name="meta.media.1.codec.bit_rate">0</property>
        <property name="meta.attr.1.stream.HANDLER_NAME.markup">SoundHandler</property>
        <property name="meta.attr.1.stream.ENCODER.markup">Lavc58.54.100 libvorbis</property>
        <property name="meta.attr.1.stream.DURATION.markup">00:00:26.862000000</property>
        <property name="meta.attr.MAJOR_BRAND.markup">iso5</property>
        <property name="meta.attr.MINOR_VERSION.markup">512</property>
        <property name="meta.attr.COMPATIBLE_BRANDS.markup">iso6mp41</property>
        <property name="meta.attr.ENCODER.markup">Lavf58.29.100</property>
        <property name="meta.media.sample_aspect_num">12</property>
        <property name="meta.media.sample_aspect_den">5</property>
        <property name="meta.media.frame_rate_num">30000</property>
        <property name="meta.media.frame_rate_den">1001</property>
        <property name="meta.media.colorspace">601</property>
        <property name="meta.media.color_trc">2</property>
        <property name="meta.media.width">720</property>
        <property name="meta.media.height">576</property>
        <property name="meta.media.color_range">mpeg</property>
        <property name="meta.media.top_field_first">0</property>
        <property name="meta.media.progressive">1</property>
        <property name="kdenlive:orig_service">avformat-novalidate</property>
    </producer>
    <producer id="producer0" in="00:00:00.000" out="00:00:04.960">
        <property name="length">00:00:05.000</property>
        <property name="eof">pause</property>
        <property name="resource">0x2a3158ff</property>
        <property name="aspect_ratio">1.06667</property>
        <property name="mlt_service">color</property>
        <property name="kdenlive:clipname">Dark Blue</property>
        <property name="kdenlive:duration">00:00:05.000</property>
        <property name="kdenlive:folderid">-1</property>
        <property name="kdenlive:id">7</property>
        <property name="kdenlive:file_hash">466ccb917e30c2d39bcd72068d75e4df</property>
        <property name="mlt_image_format">rgb</property>
        <property name="kdenlive:clip_type">2</property>
    </producer>
    <producer id="producer6" in="00:00:00.000" out="00:00:04.960">
        <property name="length">125</property>
        <property name="eof">pause</property>
        <property name="resource"/>
        <property name="meta.media.progressive">1</property>
        <property name="aspect_ratio">1</property>
        <property name="seekable">1</property>
        <property name="mlt_service">kdenlivetitle</property>
        <property name="progressive">1</property>
        <property name="kdenlive:duration">125</property>
        <property name="xmldata">&lt;kdenlivetitle LC_NUMERIC="English_United States.1252" duration="125" height="576" out="124" width="768"&gt;
 &lt;item type="QGraphicsTextItem" z-index="0"&gt;
  &lt;position x="110" y="230"&gt;
   &lt;transform&gt;1,0,0,0,1,0,0,0,1&lt;/transform&gt;
  &lt;/position&gt;
  &lt;content alignment="4" box-height="70" box-width="545" font="Noto Sans" font-color="255,253,184,255" font-italic="0" font-outline="0" font-outline-color="0,0,0,255" font-pixel-size="60" font-underline="0" font-weight="400" letter-spacing="0" line-spacing="0" shadow="0;#64000000;3;3;3"&gt;Testing Kdenlive...&lt;/content&gt;
 &lt;/item&gt;
 &lt;startviewport rect="0,0,768,576"/&gt;
 &lt;endviewport rect="0,0,768,576"/&gt;
 &lt;background color="0,0,0,0"/&gt;
&lt;/kdenlivetitle&gt;
</property>
        <property name="kdenlive:folderid">-1</property>
        <property name="kdenlive:id">10</property>
        <property name="kdenlive:file_hash">de362639624a26f69e4278e90d059408</property>
        <property name="kdenlive:clipname">Placeholder: Unsupported clip type</property>
        <property name="force_reload">0</property>
        <property name="meta.media.width">768</property>
        <property name="meta.media.height">576</property>
        <property name="kdenlive:clip_type">2</property>
    </producer>
    <producer id="producer7" in="00:00:00.000" out="00:05:34.480">
        <property name="length">2147483647</property>
        <property name="eof">continue</property>
        <property name="resource">black</property>
        <property name="aspect_ratio">1</property>
        <property name="mlt_service">color</property>
        <property name="kdenlive:playlistid">black_track</property>
        <property name="mlt_image_format">rgba</property>
        <property name="set.test_audio">0</property>
    </producer>
    <producer id="producer8" in="00:00:00.000" out="00:02:03.360" title="Anonymous Submission">
        <property name="length">3085</property>
        <property name="eof">pause</property>
        <property name="resource">AUD0002.OGG</property>
        <property name="audio_index">0</property>
        <property name="video_index">-1</property>
        <property name="mute_on_pause">0</property>
        <property name="mlt_service">avformat-novalidate</property>
        <property name="meta.media.nb_streams">1</property>
        <property name="meta.media.0.stream.type">audio</property>
        <property name="meta.media.0.codec.sample_fmt">fltp</property>
        <property name="meta.media.0.codec.sample_rate">44100</property>
        <property name="meta.media.0.codec.channels">2</property>
        <property name="meta.media.0.codec.name">vorbis</property>
        <property name="meta.media.0.codec.long_name">Vorbis</property>
        <property name="meta.media.0.codec.bit_rate">112000</property>
        <property name="seekable">1</property>
        <property name="kdenlive:clipname"/>
        <property name="kdenlive:folderid">-1</property>
        <property name="kdenlive:id">3</property>
        <property name="kdenlive:file_size">1686721</property>
        <property name="kdenlive:file_hash">f5fc0d494799f2cbaabc85c758b7d6d6</property>
        <property name="global_feed">1</property>
        <property name="xml">was here</property>
        <property name="set.test_audio">0</property>
        <property name="set.test_image">1</property>
        <property name="kdenlive:orig_service">avformat-novalidate</property>
    </producer>
    <playlist id="playlist0">
        <property name="kdenlive:audio_track">1</property>
        <entry in="00:00:27.920" out="00:01:02.360" producer="producer8">
            <property name="kdenlive:id">3</property>
            <filter id="filter0" in="00:01:01.240" out="00:01:02.360">
                <property name="window">75</property>
                <property name="max_gain">20dB</property>
                <property name="mlt_service">volume</property>
                <property name="kdenlive_id">fadeout</property>
                <property name="gain">1</property>
                <property name="end">0</property>
            </filter>
        </entry>
    </playlist>
    <playlist id="playlist1">
        <property name="kdenlive:audio_track">1</property>
    </playlist>
    <tractor id="tractor0" in="00:00:00.000" out="00:00:34.440">
        <property name="kdenlive:audio_track">1</property>
        <property name="kdenlive:trackheight">69</property>
        <property name="kdenlive:timeline_active"/>
        <property name="kdenlive:collapsed">0</property>
        <property name="kdenlive:track_name">Ambience</property>
        <property name="kdenlive:thumbs_format"/>
        <property name="kdenlive:audio_rec"/>
        <track hide="video" producer="playlist0"/>
        <track hide="video" producer="playlist1"/>
        <filter id="filter1">
            <property name="window">75</property>
            <property name="max_gain">20dB</property>
            <property name="mlt_service">volume</property>
            <property name="internal_added">237</property>
            <property name="disable">1</property>
        </filter>
        <filter id="filter2">
            <property name="channel">-1</property>
            <property name="mlt_service">panner</property>
            <property name="internal_added">237</property>
            <property name="start">0.5</property>
            <property name="disable">1</property>
        </filter>
        <filter id="filter3">
            <property name="iec_scale">0</property>
            <property name="mlt_service">audiolevel</property>
            <property name="dbpeak">1</property>
            <property name="disable">1</property>
        </filter>
    </tractor>
    <producer id="producer9" in="00:00:00.000" out="00:05:48.000" title="Anonymous Submission">
        <property name="length">8701</property>
        <property name="eof">pause</property>
        <property name="resource">AUD0001.OGG</property>
        <property name="audio_index">0</property>
        <property name="video_index">-1</property>
        <property name="mute_on_pause">0</property>
        <property name="mlt_service">avformat-novalidate</property>
        <property name="meta.media.nb_streams">1</property>
        <property name="meta.media.0.stream.type">audio</property>
        <property name="meta.media.0.codec.sample_fmt">fltp</property>
        <property name="meta.media.0.codec.sample_rate">44100</property>
        <property name="meta.media.0.codec.channels">2</property>
        <property name="meta.media.0.codec.name">vorbis</property>
        <property name="meta.media.0.codec.long_name">Vorbis</property>
        <property name="meta.media.0.codec.bit_rate">112000</property>
        <property name="seekable">1</property>
        <property name="kdenlive:clipname"/>
        <property name="kdenlive:folderid">-1</property>
        <property name="kdenlive:id">2</property>
        <property name="kdenlive:file_size">4746320</property>
        <property name="kdenlive:file_hash">2581967857de47ee2adee0965a84fd70</property>
        <property name="global_feed">1</property>
        <property name="xml">was here</property>
        <property name="set.test_audio">0</property>
        <property name="set.test_image">1</property>
        <property name="kdenlive:orig_service">avformat-novalidate</property>
    </producer>
    <playlist id="playlist2">
        <property name="kdenlive:audio_track">1</property>
        <blank length="00:00:08.520"/>
        <entry in="00:03:52.800" out="00:04:02.560" producer="producer9">
            <property name="kdenlive:id">2</property>
            <filter id="filter4" in="00:04:01.560" out="00:04:02.560">
                <property name="window">75</property>
                <property name="max_gain">20dB</property>
                <property name="mlt_service">volume</property>
                <property name="kdenlive_id">fadeout</property>
                <property name="gain">1</property>
                <property name="end">0</property>
                <property name="kdenlive:collapsed">0</property>
            </filter>
            <filter id="filter5" in="00:03:52.800" out="00:03:53.680">
                <property name="window">75</property>
                <property name="max_gain">20dB</property>
                <property name="mlt_service">volume</property>
                <property name="kdenlive_id">fadein</property>
                <property name="gain">0</property>
                <property name="end">1</property>
                <property name="kdenlive:collapsed">0</property>
            </filter>
        </entry>
        <blank length="00:00:02.280"/>
        <entry in="00:04:02.600" out="00:04:13.320" producer="producer9">
            <property name="kdenlive:id">2</property>
            <filter id="filter6" in="00:04:11.800" out="00:04:13.320">
                <property name="window">75</property>
                <property name="max_gain">20dB</property>
                <property name="mlt_service">volume</property>
                <property name="kdenlive_id">fadeout</property>
                <property name="gain">1</property>
                <property name="end">0</property>
                <property name="kdenlive:collapsed">0</property>
            </filter>
            <filter id="filter7" in="00:04:02.600" out="00:04:03.720">
                <property name="window">75</property>
                <property name="max_gain">20dB</property>
                <property name="mlt_service">volume</property>
                <property name="kdenlive_id">fadein</property>
                <property name="gain">0</property>
                <property name="end">1</property>
                <property name="kdenlive:collapsed">0</property>
            </filter>
        </entry>
    </playlist>
    <playlist id="playlist3">
        <property name="kdenlive:audio_track">1</property>
    </playlist>
    <tractor id="tractor1" in="00:00:00.000" out="00:00:31.320">
        <property name="kdenlive:audio_track">1</property>
        <property name="kdenlive:trackheight">69</property>
        <property name="kdenlive:timeline_active"/>
        <property name="kdenlive:collapsed">27</property>
        <property name="kdenlive:thumbs_format"/>
        <property name="kdenlive:audio_rec"/>
        <track hide="video" producer="playlist2"/>
        <track hide="video" producer="playlist3"/>
        <filter id="filter8">
            <property name="window">75</property>
            <property name="max_gain">20dB</property>
            <property name="mlt_service">volume</property>
            <property name="internal_added">237</property>
            <property name="disable">1</property>
        </filter>
        <filter id="filter9">
            <property name="channel">-1</property>
            <property name="mlt_service">panner</property>
            <property name="internal_added">237</property>
            <property name="start">0.5</property>
            <property name="disable">1</property>
        </filter>
        <filter id="filter10">
            <property name="iec_scale">0</property>
            <property name="mlt_service">audiolevel</property>
            <property name="dbpeak">1</property>
            <property name="disable">1</property>
        </filter>
    </tractor>
    <producer id="producer10" in="00:00:00.000" out="00:00:39.120" title="Anonymous Submission">
        <property name="length">979</property>
        <property name="eof">pause</property>
        <property name="resource">VID0001.MKV</property>
        <property name="audio_index">1</property>
        <property name="video_index">0</property>
        <property name="mute_on_pause">0</property>
        <property name="mlt_service">avformat-novalidate</property>
        <property name="seekable">1</property>
        <property name="aspect_ratio">2.4</property>
        <property name="kdenlive:clipname"/>
        <property name="kdenlive:folderid">8</property>
        <property name="kdenlive:id">4</property>
        <property name="kdenlive:file_size">3590506</property>
        <property name="kdenlive:file_hash">162662aad64e84bb9dea3270ffa9dfa7</property>
        <property name="global_feed">1</property>
        <property name="kdenlive:zone_in">508</property>
        <property name="kdenlive:zone_out">639</property>
        <property name="xml">was here</property>
        <property name="meta.media.nb_streams">2</property>
        <property name="meta.media.0.stream.type">video</property>
        <property name="meta.media.0.stream.frame_rate">29.97</property>
        <property name="meta.media.0.stream.sample_aspect_ratio">2.4</property>
        <property name="meta.media.0.codec.width">720</property>
        <property name="meta.media.0.codec.height">576</property>
        <property name="meta.media.0.codec.rotate">0</property>
        <property name="meta.media.0.codec.frame_rate">29.97</property>
        <property name="meta.media.0.codec.pix_fmt">yuv420p</property>
        <property name="meta.media.0.codec.sample_aspect_ratio">2.4</property>
        <property name="meta.media.0.codec.colorspace">601</property>
        <property name="meta.media.0.codec.name">h264</property>
        <property name="meta.media.0.codec.long_name">H.264 / AVC / MPEG-4 AVC / MPEG-4 part 10</property>
        <property name="meta.media.0.codec.bit_rate">0</property>
        <property name="meta.attr.0.stream.HANDLER_NAME.markup">VideoHandler</property>
        <property name="meta.attr.0.stream.ENCODER.markup">Lavc58.54.100 libx264</property>
        <property name="meta.attr.0.stream.DURATION.markup">00:00:37.203000000</property>
        <property name="meta.media.1.stream.type">audio</property>
        <property name="meta.media.1.codec.sample_fmt">fltp</property>
        <property name="meta.media.1.codec.sample_rate">48000</property>
        <property name="meta.media.1.codec.channels">2</property>
        <property name="meta.media.1.codec.name">vorbis</property>
        <property name="meta.media.1.codec.long_name">Vorbis</property>
        <property name="meta.media.1.codec.bit_rate">0</property>
        <property name="meta.attr.1.stream.HANDLER_NAME.markup">SoundHandler</property>
        <property name="meta.attr.1.stream.ENCODER.markup">Lavc58.54.100 libvorbis</property>
        <property name="meta.attr.1.stream.DURATION.markup">00:00:39.159000000</property>
        <property name="meta.attr.MINOR_VERSION.markup">512</property>
        <property name="meta.attr.COMPATIBLE_BRANDS.markup">iso6mp41</property>
        <property name="meta.attr.MAJOR_BRAND.markup">iso5</property>
        <property name="meta.attr.ENCODER.markup">Lavf58.29.100</property>
        <property name="meta.media.sample_aspect_num">12</property>
        <property name="meta.media.sample_aspect_den">5</property>
        <property name="meta.media.frame_rate_num">30000</property>
        <property name="meta.media.frame_rate_den">1001</property>
        <property name="meta.media.colorspace">601</property>
        <property name="meta.media.color_trc">2</property>
        <property name="meta.media.width">720</property>
        <property name="meta.media.height">576</property>
        <property name="meta.media.color_range">mpeg</property>
        <property name="meta.media.top_field_first">0</property>
        <property name="meta.media.progressive">1</property>
        <property name="set.test_audio">0</property>
        <property name="set.test_image">1</property>
        <property name="kdenlive:orig_service">avformat-novalidate</property>
    </producer>
    <playlist id="playlist4">
        <property name="kdenlive:audio_track">1</property>
        <blank length="00:00:02.960"/>
        <entry in="00:00:06.640" out="00:00:15.320" producer="producer10">
            <property name="kdenlive:id">4</property>
            <filter id="filter11">
                <property name="window">75</property>
                <property name="max_gain">20dB</property>
                <property name="level">00:00:06.640=0;00:00:08.480=15.5556;00:00:12.000=-29.5778</property>
                <property name="mlt_service">volume</property>
                <property name="kdenlive_id">volume</property>
                <property name="kdenlive:collapsed">0</property>
            </filter>
        </entry>
        <blank length="00:00:06.640"/>
        <entry in="00:00:20.320" out="00:00:35.200" producer="producer10">
            <property name="kdenlive:id">4</property>
        </entry>
    </playlist>
    <playlist id="playlist5">
        <property name="kdenlive:audio_track">1</property>
    </playlist>
    <tractor id="tractor2" in="00:00:00.000" out="00:00:33.200">
        <property name="kdenlive:audio_track">1</property>
        <property name="kdenlive:trackheight">69</property>
        <property name="kdenlive:timeline_active"/>
        <property name="kdenlive:collapsed">27</property>
        <property name="kdenlive:thumbs_format"/>
        <property name="kdenlive:audio_rec"/>
        <track hide="video" producer="playlist4"/>
        <track hide="video" producer="playlist5"/>
        <filter id="filter12">
            <property name="window">75</property>
            <property name="max_gain">20dB</property>
            <property name="mlt_service">volume</property>
            <property name="internal_added">237</property>
            <property name="disable">1</property>
        </filter>
        <filter id="filter13">
            <property name="channel">-1</property>
            <property name="mlt_service">panner</property>
            <property name="internal_added">237</property>
            <property name="start">0.5</property>
            <property name="disable">1</property>
        </filter>
        <filter id="filter14">
            <property name="iec_scale">0</property>
            <property name="mlt_service">audiolevel</property>
            <property name="dbpeak">1</property>
            <property name="disable">1</property>
        </filter>
    </tractor>
    <producer id="producer11" in="00:00:00.000" out="00:00:39.120" title="Anonymous Submission">
        <property name="length">979</property>
        <property name="eof">pause</property>
        <property name="resource">VID0001.MKV</property>
        <property name="audio_index">1</property>
        <property name="video_index">0</property>
        <property name="mute_on_pause">0</property>
        <property name="mlt_service">avformat-novalidate</property>
        <property name="seekable">1</property>
        <property name="aspect_ratio">2.4</property>
        <property name="kdenlive:clipname"/>
        <property name="kdenlive:folderid">8</property>
        <property name="kdenlive:id">4</property>
        <property name="kdenlive:file_size">3590506</property>
        <property name="kdenlive:file_hash">162662aad64e84bb9dea3270ffa9dfa7</property>
        <property name="global_feed">1</property>
        <property name="kdenlive:zone_in">508</property>
        <property name="kdenlive:zone_out">639</property>
        <property name="xml">was here</property>
        <property name="meta.media.nb_streams">2</property>
        <property name="meta.media.0.stream.type">video</property>
        <property name="meta.media.0.stream.frame_rate">29.97</property>
        <property name="meta.media.0.stream.sample_aspect_ratio">2.4</property>
        <property name="meta.media.0.codec.width">720</property>
        <property name="meta.media.0.codec.height">576</property>
        <property name="meta.media.0.codec.rotate">0</property>
        <property name="meta.media.0.codec.frame_rate">29.97</property>
        <property name="meta.media.0.codec.pix_fmt">yuv420p</property>
        <property name="meta.media.0.codec.sample_aspect_ratio">2.4</property>
        <property name="meta.media.0.codec.colorspace">601</property>
        <property name="meta.media.0.codec.name">h264</property>
        <property name="meta.media.0.codec.long_name">H.264 / AVC / MPEG-4 AVC / MPEG-4 part 10</property>
        <property name="meta.media.0.codec.bit_rate">0</property>
        <property name="meta.attr.0.stream.HANDLER_NAME.markup">VideoHandler</property>
        <property name="meta.attr.0.stream.ENCODER.markup">Lavc58.54.100 libx264</property>
        <property name="meta.attr.0.stream.DURATION.markup">00:00:37.203000000</property>
        <property name="meta.media.1.stream.type">audio</property>
        <property name="meta.media.1.codec.sample_fmt">fltp</property>
        <property name="meta.media.1.codec.sample_rate">48000</property>
        <property name="meta.media.1.codec.channels">2</property>
        <property name="meta.media.1.codec.name">vorbis</property>
        <property name="meta.media.1.codec.long_name">Vorbis</property>
        <property name="meta.media.1.codec.bit_rate">0</property>
        <property name="meta.attr.1.stream.HANDLER_NAME.markup">SoundHandler</property>
        <property name="meta.attr.1.stream.ENCODER.markup">Lavc58.54.100 libvorbis</property>
        <property name="meta.attr.1.stream.DURATION.markup">00:00:39.159000000</property>
        <property name="meta.attr.MINOR_VERSION.markup">512</property>
        <property name="meta.attr.COMPATIBLE_BRANDS.markup">iso6mp41</property>
        <property name="meta.attr.MAJOR_BRAND.markup">iso5</property>
        <property name="meta.attr.ENCODER.markup">Lavf58.29.100</property>
        <property name="meta.media.sample_aspect_num">12</property>
        <property name="meta.media.sample_aspect_den">5</property>
        <property name="meta.media.frame_rate_num">30000</property>
        <property name="meta.media.frame_rate_den">1001</property>
        <property name="meta.media.colorspace">601</property>
        <property name="meta.media.color_trc">2</property>
        <property name="meta.media.width">720</property>
        <property name="meta.media.height">576</property>
        <property name="meta.media.color_range">mpeg</property>
        <property name="meta.media.top_field_first">0</property>
        <property name="meta.media.progressive">1</property>
        <property name="set.test_audio">1</property>
        <property name="set.test_image">0</property>
        <property name="kdenlive:orig_service">avformat-novalidate</property>
    </producer>
    <playlist id="playlist6">
        <entry in="00:00:00.000" out="00:00:02.920" producer="producer0">
            <property name="kdenlive:id">7</property>
            <filter id="filter15" out="00:00:00.360">
                <property name="start">1</property>
                <property name="level">1</property>
                <property name="mlt_service">brightness</property>
                <property name="kdenlive_id">fade_from_black</property>
                <property name="alpha">00:00:00.000=0;00:00:00.360=1</property>
            </filter>
        </entry>
        <entry in="00:00:06.640" out="00:00:15.320" producer="producer11">
            <property name="kdenlive:id">4</property>
            <filter id="filter16">
                <property name="start">1</property>
                <property name="level">00:00:06.640=1;00:00:08.440=2.02899;00:00:11.960=0.57971</property>
                <property name="mlt_service">brightness</property>
                <property name="kdenlive_id">brightness</property>
                <property name="kdenlive:collapsed">0</property>
            </filter>
        </entry>
        <blank length="00:00:06.640"/>
        <entry in="00:00:20.320" out="00:00:35.200" producer="producer11">
            <property name="kdenlive:id">4</property>
        </entry>
    </playlist>
    <playlist id="playlist7"/>
    <tractor id="tractor3" in="00:00:00.000" out="00:00:33.200">
        <property name="kdenlive:trackheight">69</property>
        <property name="kdenlive:timeline_active"/>
        <property name="kdenlive:collapsed">0</property>
        <property name="kdenlive:track_name">Wide</property>
        <property name="kdenlive:thumbs_format"/>
        <property name="kdenlive:audio_rec"/>
        <track hide="audio" producer="playlist6"/>
        <track hide="audio" producer="playlist7"/>
    </tractor>
    <producer id="producer12" in="00:00:00.000" out="00:00:12.280" title="Anonymous Submission">
        <property name="length">308</property>
        <property name="eof">pause</property>
        <property name="resource">VID0002.MKV</property>
        <property name="audio_index">1</property>
        <property name="video_index">0</property>
        <property name="mute_on_pause">0</property>
        <property name="mlt_service">avformat-novalidate</property>
        <property name="seekable">1</property>
        <property name="aspect_ratio">2.4</property>
        <property name="kdenlive:clipname"/>
        <property name="kdenlive:folderid">8</property>
        <property name="kdenlive:id">5</property>
        <property name="kdenlive:file_size">1259453</property>
        <property name="kdenlive:file_hash">82c8b101a4a401e973f9f127dda3743a</property>
        <property name="global_feed">1</property>
        <property name="xml">was here</property>
        <property name="meta.media.nb_streams">2</property>
        <property name="meta.media.0.stream.type">video</property>
        <property name="meta.media.0.stream.frame_rate">29.97</property>
        <property name="meta.media.0.stream.sample_aspect_ratio">2.4</property>
        <property name="meta.media.0.codec.width">720</property>
        <property name="meta.media.0.codec.height">576</property>
        <property name="meta.media.0.codec.rotate">0</property>
        <property name="meta.media.0.codec.frame_rate">29.97</property>
        <property name="meta.media.0.codec.pix_fmt">yuv420p</property>
        <property name="meta.media.0.codec.sample_aspect_ratio">2.4</property>
        <property name="meta.media.0.codec.colorspace">601</property>
        <property name="meta.media.0.codec.name">h264</property>
        <property name="meta.media.0.codec.long_name">H.264 / AVC / MPEG-4 AVC / MPEG-4 part 10</property>
        <property name="meta.media.0.codec.bit_rate">0</property>
        <property name="meta.attr.0.stream.HANDLER_NAME.markup">VideoHandler</property>
        <property name="meta.attr.0.stream.ENCODER.markup">Lavc58.54.100 libx264</property>
        <property name="meta.attr.0.stream.DURATION.markup">00:00:12.315000000</property>
        <property name="meta.media.1.stream.type">audio</property>
        <property name="meta.media.1.codec.sample_fmt">fltp</property>
        <property name="meta.media.1.codec.sample_rate">48000</property>
        <property name="meta.media.1.codec.channels">2</property>
        <property name="meta.media.1.codec.name">vorbis</property>
        <property name="meta.media.1.codec.long_name">Vorbis</property>
        <property name="meta.media.1.codec.bit_rate">0</property>
        <property name="meta.attr.1.stream.HANDLER_NAME.markup">SoundHandler</property>
        <property name="meta.attr.1.stream.ENCODER.markup">Lavc58.54.100 libvorbis</property>
        <property name="meta.attr.1.stream.DURATION.markup">00:00:12.303000000</property>
        <property name="meta.attr.MAJOR_BRAND.markup">iso5</property>
        <property name="meta.attr.MINOR_VERSION.markup">512</property>
        <property name="meta.attr.COMPATIBLE_BRANDS.markup">iso6mp41</property>
        <property name="meta.attr.ENCODER.markup">Lavf58.29.100</property>
        <property name="meta.media.sample_aspect_num">12</property>
        <property name="meta.media.sample_aspect_den">5</property>
        <property name="meta.media.frame_rate_num">30000</property>
        <property name="meta.media.frame_rate_den">1001</property>
        <property name="meta.media.colorspace">601</property>
        <property name="meta.media.color_trc">2</property>
        <property name="meta.media.width">720</property>
        <property name="meta.media.height">576</property>
        <property name="meta.media.color_range">mpeg</property>
        <property name="meta.media.top_field_first">0</property>
        <property name="meta.media.progressive">1</property>
        <property name="set.test_audio">1</property>
        <property name="set.test_image">0</property>
        <property name="kdenlive:orig_service">avformat-novalidate</property>
    </producer>
    <producer id="producer13" in="00:00:00.000" out="00:00:26.840" title="Anonymous Submission">
        <property name="length">672</property>
        <property name="eof">pause</property>
        <property name="resource">VID0003.MKV</property>
        <property name="audio_index">1</property>
        <property name="video_index">0</property>
        <property name="mute_on_pause">0</property>
        <property name="mlt_service">avformat-novalidate</property>
        <property name="seekable">1</property>
        <property name="aspect_ratio">2.4</property>
        <property name="kdenlive:clipname"/>
        <property name="kdenlive:folderid">9</property>
        <property name="kdenlive:id">6</property>
        <property name="kdenlive:file_size">2203343</property>
        <property name="kdenlive:file_hash">da3511cd5b12be5acb6a88fb3f789dff</property>
        <property name="global_feed">1</property>
        <property name="xml">was here</property>
        <property name="meta.media.nb_streams">2</property>
        <property name="meta.media.0.stream.type">video</property>
        <property name="meta.media.0.stream.frame_rate">29.97</property>
        <property name="meta.media.0.stream.sample_aspect_ratio">2.4</property>
        <property name="meta.media.0.codec.width">720</property>
        <property name="meta.media.0.codec.height">576</property>
        <property name="meta.media.0.codec.rotate">0</property>
        <property name="meta.media.0.codec.frame_rate">29.97</property>
        <property name="meta.media.0.codec.pix_fmt">yuv420p</property>
        <property name="meta.media.0.codec.sample_aspect_ratio">2.4</property>
        <property name="meta.media.0.codec.colorspace">601</property>
        <property name="meta.media.0.codec.name">h264</property>
        <property name="meta.media.0.codec.long_name">H.264 / AVC / MPEG-4 AVC / MPEG-4 part 10</property>
        <property name="meta.media.0.codec.bit_rate">0</property>
        <property name="meta.attr.0.stream.HANDLER_NAME.markup">VideoHandler</property>
        <property name="meta.attr.0.stream.ENCODER.markup">Lavc58.54.100 libx264</property>
        <property name="meta.attr.0.stream.DURATION.markup">00:00:24.894000000</property>
        <property name="meta.media.1.stream.type">audio</property>
        <property name="meta.media.1.codec.sample_fmt">fltp</property>
        <property name="meta.media.1.codec.sample_rate">48000</property>
        <property name="meta.media.1.codec.channels">2</property>
        <property name="meta.media.1.codec.name">vorbis</property>
        <property name="meta.media.1.codec.long_name">Vorbis</property>
        <property name="meta.media.1.codec.bit_rate">0</property>
        <property name="meta.attr.1.stream.HANDLER_NAME.markup">SoundHandler</property>
        <property name="meta.attr.1.stream.ENCODER.markup">Lavc58.54.100 libvorbis</property>
        <property name="meta.attr.1.stream.DURATION.markup">00:00:26.862000000</property>
        <property name="meta.attr.MAJOR_BRAND.markup">iso5</property>
        <property name="meta.attr.MINOR_VERSION.markup">512</property>
        <property name="meta.attr.COMPATIBLE_BRANDS.markup">iso6mp41</property>
        <property name="meta.attr.ENCODER.markup">Lavf58.29.100</property>
        <property name="meta.media.sample_aspect_num">12</property>
        <property name="meta.media.sample_aspect_den">5</property>
        <property name="meta.media.frame_rate_num">30000</property>
        <property name="meta.media.frame_rate_den">1001</property>
        <property name="meta.media.colorspace">601</property>
        <property name="meta.media.color_trc">2</property>
        <property name="meta.media.width">720</property>
        <property name="meta.media.height">576</property>
        <property name="meta.media.color_range">mpeg</property>
        <property name="meta.media.top_field_first">0</property>
        <property name="meta.media.progressive">1</property>
        <property name="set.test_audio">1</property>
        <property name="set.test_image">0</property>
        <property name="kdenlive:orig_service">avformat-novalidate</property>
    </producer>
    <playlist id="playlist8">
        <entry in="00:00:00.000" out="00:00:02.920" producer="producer6">
            <property name="kdenlive:id">10</property>
            <filter id="filter17" out="00:00:01.280">
                <property name="start">1</property>
                <property name="level">1</property>
                <property name="mlt_service">brightness</property>
                <property name="kdenlive_id">fade_from_black</property>
                <property name="alpha">00:00:00.000=0;00:00:01.280=1</property>
            </filter>
        </entry>
        <blank length="00:00:08.720"/>
        <entry in="00:00:03.800" out="00:00:10.400" producer="producer12">
            <property name="kdenlive:id">5</property>
        </entry>
        <blank length="00:00:03.720"/>
        <entry in="00:00:00.000" out="00:00:08.080" producer="producer13">
            <property name="kdenlive:id">6</property>
        </entry>
    </playlist>
    <playlist id="playlist9"/>
    <tractor id="tractor4" in="00:00:00.000" out="00:00:30.120">
        <property name="kdenlive:trackheight">69</property>
        <property name="kdenlive:timeline_active"/>
        <property name="kdenlive:collapsed">0</property>
        <property name="kdenlive:track_name">Close</property>
        <property name="kdenlive:thumbs_format"/>
        <property name="kdenlive:audio_rec"/>
        <track hide="audio" producer="playlist8"/>
        <track hide="audio" producer="playlist9"/>
    </tractor>
    <tractor id="{b80eb17b-4c07-42f7-8e40-28cc48266d95}" in="00:00:00.000" out="00:05:34.480">
        <property name="kdenlive:uuid">{b80eb17b-4c07-42f7-8e40-28cc48266d95}</property>
        <property name="kdenlive:clipname">Sequence 1</property>
        <property name="kdenlive:sequenceproperties.hasAudio">1</property>
        <property name="kdenlive:sequenceproperties.hasVideo">1</property>
        <property name="kdenlive:sequenceproperties.activeTrack">4</property>
        <property name="kdenlive:sequenceproperties.tracksCount">5</property>
        <property name="kdenlive:sequenceproperties.documentuuid">{b80eb17b-4c07-42f7-8e40-28cc48266d95}</property>
        <property name="kdenlive:duration">00:00:34:13</property>
        <property name="kdenlive:maxduration">863</property>
        <property name="kdenlive:producer_type">17</property>
        <property name="kdenlive:id">12</property>
        <property name="kdenlive:clip_type">0</property>
        <property name="kdenlive:file_hash">3d4d6b14f19e22484819c631508ee159</property>
        <property name="kdenlive:folderid">11</property>
        <property name="kdenlive:markers">[
    {
        "comment": "Purple Marker",
        "pos": 230,
        "type": 0
    },
    {
        "comment": "Green",
        "pos": 466,
        "type": 3
    }
]
</property>
        <property name="kdenlive:sequenceproperties.audioTarget">-1</property>
        <property name="kdenlive:sequenceproperties.disablepreview">0</property>
        <property name="kdenlive:sequenceproperties.position">363</property>
        <property name="kdenlive:sequenceproperties.scrollPos">0</property>
        <property name="kdenlive:sequenceproperties.videoTarget">-1</property>
        <property name="kdenlive:sequenceproperties.zonein">0</property>
        <property name="kdenlive:sequenceproperties.zoneout">867</property>
        <property name="kdenlive:sequenceproperties.zoom">8</property>
        <property name="kdenlive:sequenceproperties.groups">[
    {
        "children": [
            {
                "data": "2:74",
                "leaf": "clip",
                "type": "Leaf"
            },
            {
                "data": "3:74",
                "leaf": "clip",
                "type": "Leaf"
            }
        ],
        "type": "AVSplit"
    },
    {
        "children": [
            {
                "data": "3:458",
                "leaf": "clip",
                "type": "Leaf"
            },
            {
                "data": "2:458",
                "leaf": "clip",
                "type": "Leaf"
            }
        ],
        "type": "AVSplit"
    }
]
</property>
        <property name="kdenlive:sequenceproperties.guides">[
    {
        "comment": "Purple Marker",
        "pos": 230,
        "type": 0
    },
    {
        "comment": "Green",
        "pos": 466,
        "type": 3
    }
]
</property>
        <track producer="producer7"/>
        <track producer="tractor0"/>
        <track producer="tractor1"/>
        <track producer="tractor2"/>
        <track producer="tractor3"/>
        <track producer="tractor4"/>
        <transition id="transition0">
            <property name="a_track">0</property>
            <property name="b_track">1</property>
            <property name="mlt_service">mix</property>
            <property name="kdenlive_id">mix</property>
            <property name="internal_added">237</property>
            <property name="always_active">1</property>
            <property name="accepts_blanks">1</property>
            <property name="sum">1</property>
        </transition>
        <transition id="transition1">
            <property name="a_track">0</property>
            <property name="b_track">2</property>
            <property name="mlt_service">mix</property>
            <property name="kdenlive_id">mix</property>
            <property name="internal_added">237</property>
            <property name="always_active">1</property>
            <property name="accepts_blanks">1</property>
            <property name="sum">1</property>
        </transition>
        <transition id="transition2">
            <property name="a_track">0</property>
            <property name="b_track">3</property>
            <property name="mlt_service">mix</property>
            <property name="kdenlive_id">mix</property>
            <property name="internal_added">237</property>
            <property name="always_active">1</property>
            <property name="accepts_blanks">1</property>
            <property name="sum">1</property>
        </transition>
        <transition id="transition3">
            <property name="a_track">0</property>
            <property name="b_track">4</property>
            <property name="version">0.1</property>
            <property name="mlt_service">frei0r.cairoblend</property>
            <property name="kdenlive_id">frei0r.cairoblend</property>
            <property name="internal_added">237</property>
            <property name="always_active">1</property>
        </transition>
        <transition id="transition4">
            <property name="a_track">0</property>
            <property name="b_track">5</property>
            <property name="version">0.1</property>
            <property name="mlt_service">frei0r.cairoblend</property>
            <property name="kdenlive_id">frei0r.cairoblend</property>
            <property name="internal_added">237</property>
            <property name="always_active">1</property>
        </transition>
        <filter id="filter18">
            <property name="window">75</property>
            <property name="max_gain">20dB</property>
            <property name="mlt_service">volume</property>
            <property name="internal_added">237</property>
            <property name="disable">1</property>
        </filter>
        <filter id="filter19">
            <property name="channel">-1</property>
            <property name="mlt_service">panner</property>
            <property name="internal_added">237</property>
            <property name="start">0.5</property>
            <property name="disable">1</property>
        </filter>
        <filter id="filter20">
            <property name="window">75</property>
            <property name="max_gain">20dB</property>
            <property name="mlt_service">volume</property>
            <property name="internal_added">237</property>
            <property name="disable">1</property>
        </filter>
        <filter id="filter21">
            <property name="channel">-1</property>
            <property name="mlt_service">panner</property>
            <property name="internal_added">237</property>
            <property name="start">0.5</property>
            <property name="disable">1</property>
        </filter>
        <filter id="filter22">
            <property name="mlt_service">avfilter.fieldorder</property>
            <property name="internal_added">237</property>
            <property name="av.order">tff</property>
        </filter>
    </tractor>
    <playlist id="main_bin">
        <property name="kdenlive:folder.-1.8">day 1</property>
        <property name="kdenlive:folder.-1.9">day 2</property>
        <property name="kdenlive:folder.-1.11">Sequences</property>
        <property name="kdenlive:sequenceFolder">11</property>
        <property name="kdenlive:docproperties.audioChannels">2</property>
        <property name="kdenlive:docproperties.binsort">0</property>
        <property name="kdenlive:docproperties.browserurl">/home/julius/Videos/</property>
        <property name="kdenlive:docproperties.compositing">1</property>
        <property name="kdenlive:docproperties.documentid">1573548516836</property>
        <property name="kdenlive:docproperties.enableTimelineZone">0</property>
        <property name="kdenlive:docproperties.enableexternalproxy">0</property>
        <property name="kdenlive:docproperties.enableproxy">0</property>
        <property name="kdenlive:docproperties.externalproxyparams"/>
        <property name="kdenlive:docproperties.generateimageproxy">0</property>
        <property name="kdenlive:docproperties.generateproxy">0</property>
        <property name="kdenlive:docproperties.guidesCategories">[
    {
        "color": "#9b59b6",
        "comment": "Category 1",
        "index": 0
    },
    {
        "color": "#3daee9",
        "comment": "Category 2",
        "index": 1
    },
    {
        "color": "#1abc9c",
        "comment": "Category 3",
        "index": 2
    },
    {
        "color": "#1cdc9a",
        "comment": "Category 4",
        "index": 3
    },
    {
        "color": "#c9ce3b",
        "comment": "Category 5",
        "index": 4
    },
    {
        "color": "#fdbc4b",
        "comment": "Category 6",
        "index": 5
    },
    {
        "color": "#f39c1f",
        "comment": "Category 7",
        "index": 6
    },
    {
        "color": "#f47750",
        "comment": "Category 8",
        "index": 7
    },
    {
        "color": "#da4453",
        "comment": "Category 9",
        "index": 8
    }
]
</property>
        <property name="kdenlive:docproperties.kdenliveversion">24.07.70 (rev. 7283b7399)</property>
        <property name="kdenlive:docproperties.previewextension"/>
        <property name="kdenlive:docproperties.previewparameters"/>
        <property name="kdenlive:docproperties.profile">dv_pal</property>
        <property name="kdenlive:docproperties.proxyextension"/>
        <property name="kdenlive:docproperties.proxyimageminsize">2000</property>
        <property name="kdenlive:docproperties.proxyimagesize">800</property>
        <property name="kdenlive:docproperties.proxyminsize">1000</property>
        <property name="kdenlive:docproperties.proxyparams"/>
        <property name="kdenlive:docproperties.proxyresize">640</property>
        <property name="kdenlive:docproperties.renderaudioquality">6</property>
        <property name="kdenlive:docproperties.rendercategory">Generic (HD for web, mobile devices...)</property>
        <property name="kdenlive:docproperties.renderendguide">-1</property>
        <property name="kdenlive:docproperties.renderexportaudio">0</property>
        <property name="kdenlive:docproperties.renderfield">0</property>
        <property name="kdenlive:docproperties.renderguide">0</property>
        <property name="kdenlive:docproperties.renderplay">0</property>
        <property name="kdenlive:docproperties.renderprofile">WebM - the widespread free format (VP8/Vorbis)</property>
        <property name="kdenlive:docproperties.renderquality">23</property>
        <property name="kdenlive:docproperties.renderratio">1</property>
        <property name="kdenlive:docproperties.renderrescale">0</property>
        <property name="kdenlive:docproperties.renderrescaleheight">288</property>
        <property name="kdenlive:docproperties.renderrescalewidth">360</property>
        <property name="kdenlive:docproperties.renderscanning">0</property>
        <property name="kdenlive:docproperties.renderspeed">2</property>
        <property name="kdenlive:docproperties.renderstartguide">-1</property>
        <property name="kdenlive:docproperties.rendertcoverlay">0</property>
        <property name="kdenlive:docproperties.rendertctype">0</property>
        <property name="kdenlive:docproperties.rendertwopass">0</property>
        <property name="kdenlive:docproperties.renderzone">0</property>
        <property name="kdenlive:docproperties.seekOffset">30000</property>
        <property name="kdenlive:docproperties.storagefolder">1573548516836</property>
        <property name="kdenlive:docproperties.uuid">{b80eb17b-4c07-42f7-8e40-28cc48266d95}</property>
        <property name="kdenlive:docproperties.version">1.1</property>
        <property name="kdenlive:docproperties.verticalzoom">1</property>
        <property name="kdenlive:docproperties.zoom">6</property>
        <property name="kdenlive:expandedFolders">9</property>
        <property name="kdenlive:binZoom">4</property>
        <property name="kdenlive:extraBins">project_bin:-1:0</property>
        <property name="kdenlive:documentnotes"/>
        <property name="kdenlive:docproperties.opensequences">{b80eb17b-4c07-42f7-8e40-28cc48266d95}</property>
        <property name="kdenlive:docproperties.activetimeline">{b80eb17b-4c07-42f7-8e40-28cc48266d95}</property>
        <property name="xml_retain">1</property>
        <entry in="00:00:00.000" out="00:05:48.000" producer="producer2"/>
        <entry in="00:00:00.000" out="00:02:03.360" producer="producer4"/>
        <entry in="00:00:00.000" out="00:00:39.120" producer="producer5"/>
        <entry in="00:00:00.000" out="00:00:12.280" producer="producer1"/>
        <entry in="00:00:00.000" out="00:00:26.840" producer="producer3"/>
        <entry in="00:00:00.000" out="00:00:04.960" producer="producer0"/>
        <entry in="00:00:00.000" out="00:00:04.960" producer="producer6"/>
        <entry in="00:00:00.000" out="00:00:34.480" producer="{b80eb17b-4c07-42f7-8e40-28cc48266d95}"/>
    </playlist>
    <tractor id="tractor5" in="00:00:00.000" out="00:00:34.480">
        <property name="kdenlive:projectTractor">1</property>
        <track in="00:00:00.000" out="00:00:34.480" producer="{b80eb17b-4c07-42f7-8e40-28cc48266d95}"/>
    </tractor>
</mlt>
